HIERARCHY
ROOT Hips
{
	OFFSET 0.000000 0.000000 0.000000
	CHANNELS 6 Xposition Yposition Zposition Xrotation Yrotation Zrotation
	JOINT LeftUpLeg_virtual
	{
		OFFSET 0.000000 0.000000 0.000000
		CHANNELS 3 Xrotation Yrotation Zrotation
		JOINT LeftUpLeg
		{
			OFFSET 15.427100 -6.655098 0.678600
			CHANNELS 3 Xrotation Yrotation Zrotation
			JOINT LeftLeg
			{
				OFFSET 4.081073 -39.591068 13.024000
				CHANNELS 3 Xrotation Yrotation Zrotation
				JOINT LeftFoot
				{
					OFFSET -4.081074 -37.707932 -15.979700
					CHANNELS 3 Xrotation Yrotation Zrotation
					JOINT LeftToeBase
					{
						OFFSET 5.346399 -15.068900 20.645000
						CHANNELS 3 Xrotation Yrotation Zrotation
						JOINT LeftToe_End
						{
							OFFSET 2.754700 0.931300 11.300900
							CHANNELS 3 Xrotation Yrotation Zrotation
							End Site
							{
								OFFSET 0 0 0
							}
						}
					}
				}
			}
		}
	}
	JOINT RightUpLeg_virtual
	{
		OFFSET 0.000000 0.000000 0.000000
		CHANNELS 3 Xrotation Yrotation Zrotation
		JOINT RightUpLeg
		{
			OFFSET -15.569500 -6.655098 0.678600
			CHANNELS 3 Xrotation Yrotation Zrotation
			JOINT RightLeg
			{
				OFFSET -4.081825 -39.591045 13.023800
				CHANNELS 3 Xrotation Yrotation Zrotation
				JOINT RightFoot
				{
					OFFSET 4.081824 -37.707954 -15.979600
					CHANNELS 3 Xrotation Yrotation Zrotation
					JOINT RightToeBase
					{
						OFFSET -5.346400 -15.068900 20.645000
						CHANNELS 3 Xrotation Yrotation Zrotation
						JOINT RightToe_End
						{
							OFFSET -2.754700 0.931300 11.300900
							CHANNELS 3 Xrotation Yrotation Zrotation
							End Site
							{
								OFFSET 0 0 0
							}
						}
					}
				}
			}
		}
	}
	JOINT Spine_virtual
	{
		OFFSET 0.000000 0.000000 0.000000
		CHANNELS 3 Xrotation Yrotation Zrotation
		JOINT Spine
		{
			OFFSET -0.279200 12.230698 -2.892100
			CHANNELS 3 Xrotation Yrotation Zrotation
			JOINT Spine1
			{
				OFFSET -0.232667 10.192268 -1.242267
				CHANNELS 3 Xrotation Yrotation Zrotation
				JOINT Spine1_split
				{
					OFFSET -0.232667 10.192268 -1.242267
					CHANNELS 3 Xrotation Yrotation Zrotation
					JOINT Spine2
					{
						OFFSET -0.232667 10.192268 -1.242267
						CHANNELS 3 Xrotation Yrotation Zrotation
						JOINT Neck_virtual
						{
							OFFSET 0.000000 0.000000 0.000000
							CHANNELS 3 Xrotation Yrotation Zrotation
							JOINT Neck
							{
								OFFSET -0.418800 17.814194 8.416900
								CHANNELS 3 Xrotation Yrotation Zrotation
								JOINT Head
								{
									OFFSET 0.000000 7.031097 3.806800
									CHANNELS 3 Xrotation Yrotation Zrotation
									JOINT HeadTop_End
									{
										OFFSET 0.000000 24.646606 12.978600
										CHANNELS 3 Xrotation Yrotation Zrotation
										End Site
										{
											OFFSET 0 0 0
										}
									}
								}
							}
						}
						JOINT LeftShoulder_virtual
						{
							OFFSET 0.000000 0.000000 0.000000
							CHANNELS 3 Xrotation Yrotation Zrotation
							JOINT LeftShoulder
							{
								OFFSET 8.476499 7.247704 -3.868750
								CHANNELS 3 Xrotation Yrotation Zrotation
								JOINT LeftShoulder_split
								{
									OFFSET 8.476499 7.247704 -3.868750
									CHANNELS 3 Xrotation Yrotation Zrotation
									JOINT LeftArm
									{
										OFFSET 9.308998 -2.777710 0.208600
										CHANNELS 3 Xrotation Yrotation Zrotation
										JOINT LeftForeArm
										{
											OFFSET 29.972298 0.000000 0.000000
											CHANNELS 3 Xrotation Yrotation Zrotation
											JOINT LeftHand
											{
												OFFSET 26.026505 0.000000 0.000000
												CHANNELS 3 Xrotation Yrotation Zrotation
												End Site
												{
													OFFSET 0 0 0
												}
											}
										}
									}
								}
							}
						}
						JOINT RightShoulder_virtual
						{
							OFFSET 0.000000 0.000000 0.000000
							CHANNELS 3 Xrotation Yrotation Zrotation
							JOINT RightShoulder
							{
								OFFSET -7.570500 7.247704 -3.868750
								CHANNELS 3 Xrotation Yrotation Zrotation
								JOINT RightShoulder_split
								{
									OFFSET -7.570500 7.247704 -3.868750
									CHANNELS 3 Xrotation Yrotation Zrotation
									JOINT RightArm
									{
										OFFSET -9.308998 -2.777710 0.208500
										CHANNELS 3 Xrotation Yrotation Zrotation
										JOINT RightForeArm
										{
											OFFSET -29.972300 0.000000 0.000000
											CHANNELS 3 Xrotation Yrotation Zrotation
											JOINT RightHand
											{
												OFFSET -26.026505 0.000000 0.000000
												CHANNELS 3 Xrotation Yrotation Zrotation
												End Site
												{
													OFFSET 0 0 0
												}
											}
										}
									}
								}
							}
						}
					}
				}
			}
		}
	}
}
MOTION
Frames: 4
Frame Time: 0.03333333
0.665262 113.793152 4.697929 0.000000 0.000000 0.000000 -89.648623 0.364862 0.607183 -5.334865 17.234504 20.138359 4.690902 6.914190 0.058312 29.756481 29.617838 -31.883183 -4.397729 -0.000004 0.000004 0.000000 0.000000 0.000000 -89.648623 0.364862 0.607183 -6.050479 -16.576333 -14.297288 6.375965 -6.121192 -6.754544 38.577615 -30.102570 32.544963 -9.126068 0.000018 -0.000004 0.000000 0.000000 0.000000 -89.648623 0.364862 0.607183 1.069109 -1.183161 1.068460 -0.317534 -2.434542 0.230484 0.000000 0.000000 0.000000 0.000000 0.000000 0.000000 -0.303419 -2.418346 0.331942 -10.007550 0.108423 -1.808070 8.693210 -2.170253 1.510697 0.000000 0.000000 0.000000 -0.303419 -2.418346 0.331942 0.422250 -0.102939 -3.997470 0.000000 0.000000 0.000000 35.266565 -28.376677 -54.536960 0.000106 -80.459622 0.000127 0.000000 0.000000 0.000000 -0.303419 -2.418346 0.331942 0.672262 1.791889 13.905685 0.000000 0.000000 0.000000 39.524389 30.882072 33.636370 -179.999841 78.646650 179.999855 0.000000 0.000000 0.000000 
0.664448 113.792175 4.715958 0.000000 0.000000 0.000000 -89.647141 0.363703 0.607471 -5.308535 17.210422 20.161298 4.789972 6.939193 0.017747 29.811498 29.611558 -31.856453 -4.495505 0.000010 -0.000001 0.000000 0.000000 0.000000 -89.647141 0.363703 0.607471 -6.081547 -16.571325 -14.272135 6.456136 -6.113625 -6.817315 38.438525 -30.148708 32.535248 -9.020928 0.000004 0.000017 0.000000 0.000000 0.000000 -89.647141 0.363703 0.607471 1.076691 -1.500807 1.070500 -0.122002 -3.167864 0.318245 0.000000 0.000000 0.000000 0.000000 0.000000 0.000000 -0.192742 -2.885992 0.467763 -10.438607 0.101447 -1.869203 8.494237 -2.149575 1.244427 0.000000 0.000000 0.000000 -0.192742 -2.885992 0.467763 0.143295 2.780180 -4.408303 0.000000 0.000000 0.000000 35.798070 -29.342138 -53.527981 0.000172 -80.441132 0.000188 0.000000 0.000000 0.000000 -0.192742 -2.885992 0.467763 0.595536 2.019714 13.895000 0.000000 0.000000 0.000000 37.989413 32.092300 32.256337 -179.999704 78.039904 179.999718 0.000000 0.000000 0.000000 
0.638509 113.792419 4.752098 0.000000 0.000000 0.000000 -89.634499 0.307534 0.629601 -5.302485 17.199461 20.196248 4.886504 6.988717 -0.055722 29.862714 29.613610 -31.877121 -4.584143 0.000001 0.000002 0.000000 0.000000 0.000000 -89.634499 0.307534 0.629601 -6.146486 -16.554640 -14.191290 6.650430 -6.079465 -6.979968 38.013223 -30.257369 32.474800 -8.737374 0.000001 -0.000001 0.000000 0.000000 0.000000 -89.634499 0.307534 0.629601 0.977314 -1.731185 1.046554 0.194116 -3.606527 0.416353 0.000000 0.000000 0.000000 0.000000 0.000000 0.000000 0.025589 -3.299262 0.562686 -10.333476 0.079272 -1.949323 8.269074 -2.095621 0.548456 0.000000 0.000000 0.000000 0.025589 -3.299262 0.562686 -0.239441 3.890323 -4.805997 0.000000 0.000000 0.000000 36.148141 -29.060416 -53.421594 -0.000092 -80.642350 -0.000076 0.000000 0.000000 0.000000 0.025589 -3.299262 0.562686 0.496201 2.314829 13.881618 0.000000 0.000000 0.000000 34.462491 33.833936 31.298157 -179.999868 77.311690 179.999855 0.000000 0.000000 0.000000 
0.598652 113.820053 4.784370 0.000000 0.000000 0.000000 -89.612219 0.144196 0.678569 -5.296265 17.223128 20.227511 4.907699 7.065616 -0.160665 29.753161 29.626352 -31.915732 -4.577298 -0.000020 -0.000001 0.000000 0.000000 0.000000 -89.612219 0.144196 0.678569 -6.253837 -16.525994 -14.111496 6.873029 -6.061179 -7.179190 37.505860 -30.276156 32.366798 -8.450242 0.000002 -0.000014 0.000000 0.000000 0.000000 -89.612219 0.144196 0.678569 0.878246 -1.806355 0.993447 0.768287 -3.725309 0.515754 0.000000 0.000000 0.000000 0.000000 0.000000 0.000000 0.446249 -3.410710 0.585425 -10.114586 0.045414 -2.073425 7.592118 -1.998998 -0.471706 0.000000 0.000000 0.000000 0.446249 -3.410710 0.585425 -0.247523 3.634491 -5.320401 0.000000 0.000000 0.000000 35.720496 -28.101294 -53.559219 0.000101 -80.968409 0.000096 0.000000 0.000000 0.000000 0.446249 -3.410710 0.585425 0.335288 2.897682 13.887835 0.000000 0.000000 0.000000 29.551350 35.490346 31.411760 -179.999663 77.256208 179.999650 0.000000 0.000000 0.000000 
